<svg id="Layer_1" data-name="Layer 1" xmlns="http://www.w3.org/2000/svg" viewBox="0 0 1724.91 404.98"><defs><style>.cls-1{fill:#fff;}</style></defs><title>Logo Horizontal Grayscale</title><path class="cls-1" d="M179.47,184.86h9.4q8.08.36,11.46-4.46,3-4.29,3-14.81V126q0-11.25-3-15.35-3.37-3.93-11.46-3.93h-9.4Z"/><path class="cls-1" d="M179.47,296.69h9.4q8.08.36,11.46-4.46,3-4.28,3-14.81V233.29q0-11.25-3-15.35Q197,214,188.87,214h-9.4Z"/><path class="cls-1" d="M136.81,73.49V289.77q0,12.06-4.14,20.8A36.53,36.53,0,0,1,120.59,324a49,49,0,0,1-15.54,6.81,58,58,0,0,1-17.27,2.63q-20.53-.36-33.66-13.65Q41,306.89,41,285.72v-54.4H77.68V284.7q0,11.9,3.74,15.4a9.42,9.42,0,0,0,7.66,3,10.51,10.51,0,0,0,8-3q3-3.5,3-15.39V73.49Z"/><rect class="cls-1" x="258.49" y="51.99" width="4.73" height="312.07"/><path class="cls-1" d="M313.68,265.61h19.7a23.27,23.27,0,0,1,7.75,1.2,16.63,16.63,0,0,1,5.79,3.41,15,15,0,0,1,3.65,5.27,17.55,17.55,0,0,1,1.27,6.79v.13a17,17,0,0,1-1.51,7.37,14.94,14.94,0,0,1-4.17,5.31,18.16,18.16,0,0,1-6.2,3.2,26,26,0,0,1-7.61,1.07h-8.06v14.47H313.68Zm19,24.31a8.64,8.64,0,0,0,6.2-2.1,6.89,6.89,0,0,0,2.21-5.2v-.14a6.58,6.58,0,0,0-2.31-5.44,9.78,9.78,0,0,0-6.31-1.86h-8.19v14.74Z"/><path class="cls-1" d="M359.69,265.61H370.3v19.08h19.56V265.61h10.61v48.22H389.86V294.47H370.3v19.36H359.69Z"/><path class="cls-1" d="M425.61,294.81l-18.53-29.2h12.4L431,285l11.71-19.35h12.05l-18.53,29v19.22H425.61Z"/><path class="cls-1" d="M478.58,314.51a32,32,0,0,1-10.81-1.89,28.45,28.45,0,0,1-9.64-5.82l6.26-7.51a31.41,31.41,0,0,0,6.79,4.27,18.07,18.07,0,0,0,7.61,1.59,9.31,9.31,0,0,0,5.13-1.21,3.79,3.79,0,0,0,1.83-3.34v-.14a4.2,4.2,0,0,0-.38-1.82,3.9,3.9,0,0,0-1.45-1.48,15.56,15.56,0,0,0-3-1.38q-1.9-.69-4.94-1.45a57.77,57.77,0,0,1-6.63-2,18.51,18.51,0,0,1-5-2.72,10.91,10.91,0,0,1-3.21-4,13.94,13.94,0,0,1-1.14-6v-.14a14,14,0,0,1,1.23-6,13.68,13.68,0,0,1,3.45-4.58,15.72,15.72,0,0,1,5.32-3,21.23,21.23,0,0,1,6.8-1,29,29,0,0,1,9.75,1.58,28.24,28.24,0,0,1,8.16,4.55l-5.51,8a34.9,34.9,0,0,0-6.34-3.48,16.13,16.13,0,0,0-6.19-1.27,7.51,7.51,0,0,0-4.65,1.2,3.66,3.66,0,0,0-1.55,3v.14a4.31,4.31,0,0,0,.44,2,4.09,4.09,0,0,0,1.63,1.55,15.49,15.49,0,0,0,3.21,1.31q2,.62,5.14,1.44a50.93,50.93,0,0,1,6.53,2.17,18.44,18.44,0,0,1,4.84,2.9,11,11,0,0,1,3,4,13.55,13.55,0,0,1,1,5.44v.14a15,15,0,0,1-1.3,6.37,13.09,13.09,0,0,1-3.63,4.68,16.09,16.09,0,0,1-5.55,2.89A24,24,0,0,1,478.58,314.51Z"/><path class="cls-1" d="M505.93,265.61h10.61v48.22H505.93Z"/><path class="cls-1" d="M551.19,314.65a24.87,24.87,0,0,1-9.85-1.93,23.74,23.74,0,0,1-13-13.15,25.41,25.41,0,0,1-1.86-9.72v-.13a25.14,25.14,0,0,1,1.86-9.68,24.87,24.87,0,0,1,5.16-7.92,24,24,0,0,1,7.93-5.38,25.89,25.89,0,0,1,10.19-2,32.43,32.43,0,0,1,6.16.55,25.56,25.56,0,0,1,5.07,1.52,22,22,0,0,1,4.2,2.34,29,29,0,0,1,3.58,3L563.86,280a25.34,25.34,0,0,0-5.75-4,14.72,14.72,0,0,0-6.58-1.45,13.42,13.42,0,0,0-5.61,1.17,13.2,13.2,0,0,0-4.45,3.24,15.07,15.07,0,0,0-2.89,4.79,16.2,16.2,0,0,0-1,5.82v.14a16.48,16.48,0,0,0,1,5.85,15.18,15.18,0,0,0,2.86,4.82,13.46,13.46,0,0,0,4.41,3.28,13.29,13.29,0,0,0,5.68,1.2,14.74,14.74,0,0,0,7-1.51,27.47,27.47,0,0,0,5.69-4.14L571,306a33.78,33.78,0,0,1-3.86,3.58,22.73,22.73,0,0,1-9.58,4.45A31.3,31.3,0,0,1,551.19,314.65Z"/><path class="cls-1" d="M596,265.26h9.78l20.66,48.57H615.31L610.91,303H590.52l-4.41,10.82H575.29Zm11.16,28.38L600.71,278l-6.4,15.63Z"/><path class="cls-1" d="M633.84,265.61h10.61v38.64h24v9.58H633.84Z"/><path class="cls-1" d="M693.43,265.61h11.36l10,32.65,10.81-32.79h9.1l10.81,32.79,10-32.65h11.09l-16.46,48.56h-9.23L730,282.62l-10.88,31.55h-9.23Z"/><path class="cls-1" d="M774.43,265.61h36.3v9.44H784.9v9.78h22.73v9.43H784.9v10.13h26.18v9.44H774.43Z"/><path class="cls-1" d="M820.58,265.61h10.61v38.64h24v9.58H820.58Z"/><path class="cls-1" d="M863.22,265.61h10.61v38.64h24v9.58H863.22Z"/><path class="cls-1" d="M905.86,265.61h9.78l22.59,29.69V265.61H948.7v48.22h-9l-23.35-30.66v30.66H905.86Z"/><path class="cls-1" d="M960.27,265.61h36.31v9.44H970.74v9.78h22.74v9.43H970.74v10.13h26.18v9.44H960.27Z"/><path class="cls-1" d="M1023.65,314.51a32,32,0,0,1-10.82-1.89,28.45,28.45,0,0,1-9.64-5.82l6.27-7.51a31.12,31.12,0,0,0,6.78,4.27,18.1,18.1,0,0,0,7.61,1.59,9.26,9.26,0,0,0,5.13-1.21,3.79,3.79,0,0,0,1.83-3.34v-.14a4.2,4.2,0,0,0-.38-1.82,3.83,3.83,0,0,0-1.45-1.48,15.27,15.27,0,0,0-3-1.38c-1.27-.46-2.91-.94-4.94-1.45a57.77,57.77,0,0,1-6.63-2,18.51,18.51,0,0,1-5-2.72,11,11,0,0,1-3.21-4,13.94,13.94,0,0,1-1.14-6v-.14a14,14,0,0,1,1.23-6,13.68,13.68,0,0,1,3.45-4.58,15.72,15.72,0,0,1,5.32-3,21.23,21.23,0,0,1,6.8-1,29,29,0,0,1,9.75,1.58,28.24,28.24,0,0,1,8.16,4.55l-5.51,8a35.16,35.16,0,0,0-6.33-3.48,16.22,16.22,0,0,0-6.2-1.27,7.51,7.51,0,0,0-4.65,1.2,3.66,3.66,0,0,0-1.55,3v.14a4.31,4.31,0,0,0,.45,2,4.12,4.12,0,0,0,1.62,1.55,15.49,15.49,0,0,0,3.21,1.31c1.36.41,3.07.89,5.15,1.44a50.76,50.76,0,0,1,6.52,2.17,18.28,18.28,0,0,1,4.84,2.9,11,11,0,0,1,3,4,13.55,13.55,0,0,1,1,5.44v.14a14.89,14.89,0,0,1-1.3,6.37,13.09,13.09,0,0,1-3.63,4.68,16.09,16.09,0,0,1-5.55,2.89A24,24,0,0,1,1023.65,314.51Z"/><path class="cls-1" d="M1067.73,314.51a32,32,0,0,1-10.81-1.89,28.59,28.59,0,0,1-9.65-5.82l6.27-7.51a31.41,31.41,0,0,0,6.79,4.27,18,18,0,0,0,7.61,1.59,9.31,9.31,0,0,0,5.13-1.21,3.8,3.8,0,0,0,1.82-3.34v-.14a4.06,4.06,0,0,0-.38-1.82,3.76,3.76,0,0,0-1.45-1.48,15,15,0,0,0-3-1.38c-1.26-.46-2.91-.94-4.93-1.45a58,58,0,0,1-6.64-2,18.51,18.51,0,0,1-5-2.72,11,11,0,0,1-3.21-4,13.94,13.94,0,0,1-1.14-6v-.14a14,14,0,0,1,1.23-6,13.71,13.71,0,0,1,3.46-4.58,15.58,15.58,0,0,1,5.31-3,21.34,21.34,0,0,1,6.81-1,29,29,0,0,1,9.75,1.58,28.24,28.24,0,0,1,8.16,4.55l-5.51,8a34.9,34.9,0,0,0-6.34-3.48,16.18,16.18,0,0,0-6.2-1.27,7.55,7.55,0,0,0-4.65,1.2,3.69,3.69,0,0,0-1.55,3v.14a4.31,4.31,0,0,0,.45,2,4.12,4.12,0,0,0,1.62,1.55,15.85,15.85,0,0,0,3.22,1.31c1.35.41,3.07.89,5.14,1.44a50.93,50.93,0,0,1,6.53,2.17,18.21,18.21,0,0,1,4.83,2.9,10.89,10.89,0,0,1,3,4,13.38,13.38,0,0,1,1,5.44v.14a14.89,14.89,0,0,1-1.3,6.37,13,13,0,0,1-3.62,4.68,16.14,16.14,0,0,1-5.56,2.89A24,24,0,0,1,1067.73,314.51Z"/><path class="cls-1" d="M341.37,224q-12.89,0-21.38-5.71a46.58,46.58,0,0,1-13.87-14.52l9.3-8a43.77,43.77,0,0,0,11.18,12.16q6,4.16,14.94,4.16a20.76,20.76,0,0,0,16-6.94q6.38-6.93,6.37-20.48V108.08h12.89v76.39a51.27,51.27,0,0,1-2.74,17.62,34,34,0,0,1-7.57,12.41Q356.72,224,341.37,224Z"/><path class="cls-1" d="M449.75,107.26h12.08l52.06,115.07H500l-13.38-30.19H424.45L410.9,222.33H397.68Zm31.83,73.29-25.95-58.27-26.12,58.27Z"/><path class="cls-1" d="M537.56,108.08h12.89V222.33H537.56Z"/><path class="cls-1" d="M583.91,108.08H597l41.62,62.35,41.62-62.35h13.06V222.33h-12.9V129.79L638.75,191h-.65l-41.62-61v92.38H583.91Z"/><path class="cls-1" d="M725.58,108.08h82.59v11.59H738.48V159h62.35v11.59H738.48v40.15H809v11.59H725.58Z"/><path class="cls-1" d="M883.9,108.08h48.55a51.82,51.82,0,0,1,17.35,2.69,34,34,0,0,1,12.46,7.41,25.48,25.48,0,0,1,7.33,18.25v.32a29,29,0,0,1-1.55,9.86,24.75,24.75,0,0,1-4.15,7.49,28.16,28.16,0,0,1-5.78,5.38,37.22,37.22,0,0,1-6.59,3.67,50.5,50.5,0,0,1,9.53,3.84,31.94,31.94,0,0,1,7.74,5.64A25,25,0,0,1,974,180.4a25.87,25.87,0,0,1,2,10.38v.32A28.74,28.74,0,0,1,973,204.27a27.29,27.29,0,0,1-8.39,9.81,40.14,40.14,0,0,1-13.11,6.13,63.23,63.23,0,0,1-16.95,2.12H883.9Zm46.59,50.76q11.71,0,19-5.12t7.25-15.2v-.32a16.18,16.18,0,0,0-6.51-13.49q-6.51-5-18.72-5H896.8v39.17Zm4.57,51.9q13,0,20.51-5.38t7.49-15V190a16.43,16.43,0,0,0-7.65-14.44q-7.65-5.15-22.63-5.14h-36v40.31Z"/><path class="cls-1" d="M1001.74,108.08h49.13a54.65,54.65,0,0,1,18.85,3,36.79,36.79,0,0,1,13.63,8.4,29.36,29.36,0,0,1,6.53,10,33.63,33.63,0,0,1,2.29,12.57v.33a33.94,33.94,0,0,1-2.29,12.81,29.09,29.09,0,0,1-6.45,9.79,34.69,34.69,0,0,1-9.87,6.86,48.07,48.07,0,0,1-12.4,3.83l35.09,46.68h-15.84l-33.13-44.39h-32.64v44.39h-12.9Zm48.08,58.27a40.51,40.51,0,0,0,11.78-1.63,28.76,28.76,0,0,0,9.33-4.66,21.55,21.55,0,0,0,6.13-7.34,21.28,21.28,0,0,0,2.21-9.87v-.33q0-10.61-7.69-16.57t-21.6-6h-35.34v46.36Z"/><path class="cls-1" d="M1119.75,108.08h82.59v11.59h-69.7V159H1195v11.59h-62.35v40.15h70.51v11.59h-83.4Z"/><path class="cls-1" d="M1229.1,108.08h12.08l72,91.56V108.08h12.57V222.33h-10.28l-73.78-93.68v93.68H1229.1Z"/><path class="cls-1" d="M1358.05,108.08h12.89V176.3l65.61-68.22h16.65l-49,49.94,51.08,64.31h-16.16L1395.26,167l-24.32,24.65v30.68h-12.89Z"/><path class="cls-1" d="M1521.1,224.13a55.89,55.89,0,0,1-19.34-3.19,40.57,40.57,0,0,1-15-9.46,42.37,42.37,0,0,1-9.71-15.59,61.51,61.51,0,0,1-3.43-21.38V108.08h12.9v65.61q0,18.62,9.22,28.57t25.7,10q15.84,0,25.14-9.46t9.3-28.24V108.08h12.9v65.45a64.72,64.72,0,0,1-3.43,22,42.92,42.92,0,0,1-9.71,15.84,40.12,40.12,0,0,1-15,9.54A56.41,56.41,0,0,1,1521.1,224.13Z"/><path class="cls-1" d="M1681.31,112.89h-4.38V110h12v2.92h-4.39v11.5h-3.18Z"/><path class="cls-1" d="M1691.31,110h3.42l3.79,6.09,3.79-6.09h3.42v14.42h-3.13V115l-4.06,6.16h-.08l-4-6.1v9.36h-3.13Z"/><path class="cls-1" d="M1638.61,224a67.55,67.55,0,0,1-25-4.48,71.68,71.68,0,0,1-21.63-13.8l8-9.46a67.34,67.34,0,0,0,18.12,12.16,52.17,52.17,0,0,0,21,4q11.6,0,18.53-5.47a17,17,0,0,0,6.93-14v-.32a18.33,18.33,0,0,0-1.31-7.1,14.45,14.45,0,0,0-4.58-5.8,32.3,32.3,0,0,0-9.08-4.73,115.87,115.87,0,0,0-14.8-4.08,118,118,0,0,1-17.1-4.9,42.78,42.78,0,0,1-12-6.69,24.55,24.55,0,0,1-7-9.14,30.21,30.21,0,0,1-2.29-12.24v-.33a28,28,0,0,1,2.77-12.4,29.18,29.18,0,0,1,7.84-9.88,38.23,38.23,0,0,1,11.91-6.53,46,46,0,0,1,15-2.36,62.55,62.55,0,0,1,21.95,3.51,67.09,67.09,0,0,1,18.2,10.52l-7.51,10a55.91,55.91,0,0,0-16.07-9.47,49.28,49.28,0,0,0-16.9-2.93q-11.27,0-17.79,5.3a16.32,16.32,0,0,0-6.53,13.14v.33a19,19,0,0,0,1.31,7.26,14.8,14.8,0,0,0,4.73,5.88,34.84,34.84,0,0,0,9.47,4.89,112.28,112.28,0,0,0,15.5,4.16q19.11,4.25,28.16,11.76t9.06,20.56v.33a30,30,0,0,1-2.9,13.3,30.71,30.71,0,0,1-8,10.2,35.94,35.94,0,0,1-12.28,6.53A51.55,51.55,0,0,1,1638.61,224Z"/></svg>