<?xml version="1.0" encoding="utf-8"?>
<!-- Generator: Adobe Illustrator 19.0.0, SVG Export Plug-In . SVG Version: 6.00 Build 0)  -->
<svg version="1.1" id="Layer_1" xmlns="http://www.w3.org/2000/svg" xmlns:xlink="http://www.w3.org/1999/xlink" x="0px" y="0px"
	 viewBox="0 0 1000 1000" style="enable-background:new 0 0 1000 1000;" xml:space="preserve">
<style type="text/css">
	.st0{fill:#C43B65;}
</style>
<path id="XMLID_32_" d="M6.7,507.7h89.3c22.2,0,38.9,5.7,50.3,17.1c8.7,8.6,13.5,20.5,13.2,32.7v0.6c0.1,4.9-0.6,9.9-2.1,14.6
	c-1.3,4-3.1,7.9-5.5,11.4c-2.2,3.3-4.9,6.3-7.9,9c-3,2.5-6.2,4.8-9.7,6.6c10,3.5,19.1,9.4,26.3,17.2c6.4,7.3,9.6,17.3,9.6,30.2v0.5
	c0.2,8-1.6,15.9-5.1,23.1c-3.4,6.6-8.4,12.3-14.6,16.5c-6.9,4.7-14.7,8-22.8,9.9c-9.7,2.3-19.6,3.4-29.5,3.3H6.7V507.7z M87,585.6
	c9.3,0,16.8-1.6,22.3-4.8c5.5-3.2,8.3-8.4,8.3-15.6v-0.5c0.3-5.8-2.4-11.4-7.1-14.7c-4.8-3.4-11.7-5.1-20.6-5.1H47.9v40.7H87z
	 M98.3,663.2c9.4,0,16.7-1.7,22-5.1c5.3-3.4,8-8.7,8-15.8v-0.5c0.2-6-2.6-11.7-7.5-15.3c-4.9-3.8-12.9-5.7-23.9-5.7h-49v42.4
	L98.3,663.2z"/>
<path id="XMLID_31_" d="M205.3,518.2c0,0,6.7,5.5,21.1,16.5s21.3,13.7,21.3,13.7v113.7h96v38.2H205.3V518.2z"/>
<path id="XMLID_28_" d="M441.7,506.4h39.1l82.6,194H519l-17.6-43.2H420l-17.6,43.2h-43.2L441.7,506.4z M486.3,619.7l-25.6-62.5
	l-25.6,62.5H486.3z"/>
<path id="XMLID_27_" d="M683.3,703.7c-13.5,0.1-26.9-2.5-39.4-7.7c-11.7-4.9-22.4-12-31.4-21c-8.9-9-16-19.7-20.7-31.5
	c-5-12.3-7.5-25.5-7.4-38.8v-0.5c-0.1-13.3,2.4-26.4,7.4-38.7c4.8-11.8,11.9-22.5,20.7-31.7c9-9.2,19.8-16.5,31.7-21.5
	c12.9-5.3,26.8-8,40.7-7.8c8.3-0.1,16.5,0.7,24.6,2.2c6.9,1.3,13.7,3.3,20.2,6.1c5.9,2.5,11.5,5.7,16.8,9.4
	c5.1,3.6,9.9,7.7,14.3,12.1l-27,31.1c-6.9-6.3-14.6-11.7-23-15.9c-8.2-4-17.3-5.9-26.4-5.8c-15.3-0.2-29.9,6.2-40.2,17.6
	c-5,5.6-8.9,12.1-11.6,19.1c-2.7,7.4-4.1,15.3-4,23.2v0.6c0,8,1.4,15.9,4.1,23.4c2.6,7.1,6.5,13.6,11.4,19.3
	c10.2,11.5,24.9,18.1,40.3,17.9c9.7,0.3,19.2-1.8,27.9-6.1c8.2-4.5,15.8-10.1,22.6-16.5l27,27.2c-4.8,5.2-9.9,9.9-15.4,14.3
	c-5.4,4.3-11.3,7.9-17.5,10.9c-6.6,3.1-13.6,5.4-20.7,6.9C700.3,703,691.8,703.8,683.3,703.7z"/>
<path id="XMLID_26_" d="M796.2,507.7h42.4v84.2l78.2-84.2h51.2l-78.4,81.7l82,110.9h-50.9l-59.7-82l-22.3,23.2v58.9h-42.4V507.7z"/>
<path id="XMLID_23_" d="M7.4,740.1h78.9c14.8-0.2,29.6,2.4,43.5,7.7c12.7,4.8,24.2,12,34.1,21.2c9.5,9,17,19.9,22.1,31.9
	c5.3,12.6,7.9,26.1,7.8,39.7v0.6c0.1,13.7-2.5,27.3-7.8,39.9c-5,12.1-12.6,23-22.1,32c-9.9,9.3-21.5,16.5-34.1,21.4
	c-13.9,5.3-28.6,8-43.5,7.8H7.4V740.1z M86.3,902.2c8.5,0.1,16.9-1.4,24.8-4.3c7.2-2.7,13.8-6.9,19.2-12.4c5.4-5.5,9.6-12,12.4-19.1
	c3.1-7.8,4.6-16.1,4.5-24.5v-0.6c0.1-8.4-1.4-16.7-4.5-24.5c-2.8-7.2-7-13.8-12.4-19.4c-5.5-5.5-12-9.8-19.2-12.6
	c-7.9-3.1-16.4-4.6-24.8-4.5H51.9v121.9L86.3,902.2z"/>
<path id="XMLID_20_" d="M233.4,740.1h92.5c25.6,0,45.3,6.8,58.9,20.5c11.6,11.6,17.4,27,17.3,46.3v0.6c0,16.3-4,29.7-12,40
	c-8.1,10.4-19,18.2-31.3,22.6l49.4,72.2h-52l-43.4-64.7h-34.9v64.7h-44.5V740.1z M323,838.3c11,0,19.4-2.6,25.3-7.8
	c5.9-5.2,9.1-12.9,8.8-20.7v-0.6c0-9.6-3.1-16.9-9.3-21.7c-6.2-4.8-14.7-7.2-25.7-7.2h-44.2v58.1L323,838.3z"/>
<path id="XMLID_19_" d="M442.3,740.1h152.3v39.6H486.2v41h95.3v39.6h-95.3v42.5H596v39.6H442.3V740.1z"/>
<path id="XMLID_18_" d="M708.1,945.2c-15.5,0-30.8-2.7-45.3-8c-15-5.4-28.7-13.7-40.4-24.5l26.3-31.5c8.7,7.2,18.3,13.2,28.5,17.9
	c10,4.5,20.9,6.8,31.9,6.6c9.3,0,16.4-1.7,21.5-5.1c4.9-3,7.8-8.3,7.7-14v-0.6c0.1-2.6-0.5-5.3-1.6-7.7c-1.4-2.6-3.5-4.7-6.1-6.2
	c-3.9-2.4-8.1-4.3-12.5-5.8c-5.3-1.9-12.2-3.9-20.7-6.1c-9.4-2.3-18.7-5-27.8-8.4c-7.6-2.7-14.7-6.6-21.2-11.4
	c-5.8-4.5-10.4-10.3-13.5-17c-3.4-7.9-5.1-16.5-4.8-25.1V798c-0.1-8.6,1.6-17.2,5.2-25c3.4-7.4,8.4-13.9,14.5-19.2
	c6.5-5.5,14.1-9.7,22.3-12.3c9.2-3,18.9-4.4,28.6-4.3c13.9-0.2,27.7,2.1,40.9,6.7c12.4,4.4,24,10.9,34.2,19.1l-23.1,33.5
	c-8.3-5.8-17.2-10.7-26.6-14.6c-8.2-3.5-17.1-5.3-26-5.3c-8.7,0-15.2,1.7-19.5,5.1c-4.1,2.9-6.5,7.6-6.5,12.6v0.6
	c-0.1,3,0.6,5.9,1.9,8.5c1.6,2.8,4,5,6.8,6.5c4.3,2.3,8.8,4.2,13.5,5.5c5.7,1.7,12.9,3.8,21.6,6.1c9.3,2.4,18.5,5.4,27.4,9.1
	c7.3,3,14.2,7.1,20.3,12.1c5.4,4.5,9.6,10.2,12.4,16.6c3,7.2,4.4,15,4.2,22.8v0.6c0.2,9.2-1.7,18.4-5.4,26.8
	c-3.5,7.6-8.7,14.3-15.2,19.6c-6.9,5.5-14.8,9.6-23.2,12.1C728.5,943.9,718.3,945.4,708.1,945.2z"/>
<path id="XMLID_17_" d="M893.1,945.2c-15.5,0-30.8-2.7-45.4-8c-15-5.4-28.7-13.7-40.5-24.5l26.4-31.5c8.7,7.2,18.2,13.2,28.5,17.9
	c10,4.5,20.9,6.8,31.9,6.6c9.2,0,16.4-1.7,21.5-5.1c4.9-3,7.8-8.3,7.7-14v-0.6c0.1-2.6-0.5-5.3-1.6-7.7c-1.4-2.6-3.5-4.7-6.1-6.2
	c-3.9-2.4-8.1-4.3-12.5-5.8c-5.3-1.9-12.2-3.9-20.7-6.1c-9.4-2.3-18.7-5-27.8-8.4c-7.6-2.7-14.7-6.6-21.2-11.4
	c-5.8-4.5-10.4-10.3-13.5-17c-3.4-7.9-5.1-16.5-4.8-25.1V798c-0.1-8.6,1.6-17.2,5.2-25c3.4-7.4,8.4-13.9,14.5-19.2
	c6.5-5.5,14-9.7,22.2-12.3c9.2-3,18.9-4.4,28.6-4.3c13.9-0.2,27.7,2.1,40.9,6.7c12.4,4.4,24,10.9,34.2,19.1l-23.1,33.5
	c-8.3-5.8-17.2-10.7-26.6-14.6c-8.2-3.5-17.1-5.3-26-5.3c-8.7,0-15.2,1.7-19.5,5.1c-4.1,2.9-6.5,7.6-6.5,12.6v0.6
	c-0.1,3,0.6,5.9,1.9,8.5c1.6,2.8,4,5,6.8,6.5c4.3,2.3,8.8,4.2,13.5,5.5c5.7,1.7,12.9,3.8,21.6,6.1c9.3,2.4,18.5,5.4,27.4,9.1
	c7.3,3,14.2,7.1,20.3,12.1c5.4,4.5,9.6,10.2,12.5,16.6c3,7.2,4.4,15,4.2,22.8v0.6c0.2,9.2-1.7,18.3-5.4,26.7
	c-3.5,7.6-8.7,14.3-15.2,19.6c-6.9,5.5-14.8,9.6-23.3,12.1C913.3,943.9,903.2,945.3,893.1,945.2z"/>
<path id="XMLID_13_" class="st0" d="M317.7,29.6c19.9,0,33.6,12.5,33.6,30.7c0,26.7-41,48.4-81.3,59.2
	c-13.6,34.1-26.7,76.2-37.5,113.1c-18.9,59.7-31.3,97.8-42.1,124.6c-7.3,18.4-16.3,36.1-26.7,52.9c15.4,14.2,30.7,29.6,46.7,44.9
	c47.1,47.1,76.3,70.3,128,70.3c28.4,0,54.7-11.3,63.7-31.3c1.8-4.4,6-7.4,10.8-7.4c8,0,11.9,8,11.9,12.5c-0.2,1.6-0.6,3.1-1.1,4.5
	c-14.2,31.9-51.8,46.1-85.9,46.1c-60.3,0-95-28.3-144.5-77.7c-14.8-14.2-29-29-43.2-41.5c-1.6,2.2-3.3,4.3-5.1,6.3
	c-19.9,23.3-50,38.1-80.2,38.1c-39.2-2.8-59.2-21.1-59.2-54.7C7.7,380.5,35,357.7,68,357.7c24.5,0,51.2,14.8,77.3,37
	c8.7-15,16.3-30.6,22.8-46.6c10.8-27.9,19.3-52.9,40.9-122.8c9.7-31.8,21-68.2,33-100.7c-11.3,2.3-23.3,4-34.7,5.7
	c-76,12-159.8,25.1-168.3,86.6c-0.5,2.2-0.7,4.5-0.6,6.8c-0.7,12,2.7,23.8,9.7,33.6c7.1,9.5,17.8,15.7,29.6,17l5.7,0.6
	c6.2,0,11.3,5,11.4,11.2c0,0.4,0,0.8-0.1,1.3c0,6.3-5.7,11.3-12.5,11.3c-2.7,0.1-5.3-0.1-8-0.6c-19.9-2.8-35.3-12.5-45.5-26.7
	c-10.2-13.1-14.8-30.7-14.2-49c-0.1-3,0.1-6.1,0.6-9.1c10.8-79.1,103-93.3,188.3-106.4l48.4-7.4C264.2,66.6,288.7,29.6,317.7,29.6z
	 M132.3,414.7c-23.9-19.3-45.5-33-64.8-33c-19.9,0-37,14.8-38.1,38.7c0,22.2,15.9,30.7,35.3,30.7c22.7,0,46.6-11.9,62-29.6
	C128.3,419.1,130.2,416.8,132.3,414.7z M325.6,60.3c0.1-4.3-3.3-7.8-7.6-8c-0.1,0-0.3,0-0.4,0c-12.5,0-27.3,19.3-36.4,38.7
	C305.2,85.9,325.6,69.4,325.6,60.3L325.6,60.3z"/>
<path id="XMLID_10_" class="st0" d="M431.9,347.5c-0.1,1.8-0.5,3.5-1.1,5.1c-27.3,61.4-56.9,119.5-104.6,119.5
	c-27.3,0-42.1-21.6-41-47.8c1.7-44.4,42.1-148.4,67.1-213.3c1.5-4.7,5.9-7.9,10.8-8c7.4,0,14.8,5.7,11.3,15.4
	C319.3,373.7,309,399.8,309,424.3c0,16.5,5.1,23.9,17.1,23.9c35.3,0,61.4-58.6,82.5-105.2c2.3-6,9.1-9,15.1-6.6
	c0.3,0.1,0.6,0.2,0.8,0.4C428.9,338.4,431.9,342.7,431.9,347.5z M367.1,154.7c0.2-10.8,9.1-19.5,19.9-19.3
	c10.7,0,19.3,8.7,19.3,19.3c0,10.7-8.7,19.3-19.3,19.3C376.2,174.2,367.3,165.6,367.1,154.7z"/>
<path id="XMLID_9_" class="st0" d="M550.2,347.5c-0.1,1.8-0.5,3.5-1.1,5.1c-33,71.1-64.8,119.5-117.2,119.5
	c-27.3,0-42.1-20.5-42.1-47.8c0-21,14.2-70.5,32.4-117.2l29-81.3h-35.8c-6.4,0.2-11.8-4.9-12-11.4c0-0.2,0-0.4,0-0.6
	c0-6.6,5.4-11.9,12-12h43.8c1.1-2.3,29-82.5,29.6-84.7c1.6-4.9,6.2-8.1,11.3-8c6.6,0,12,5.3,12,11.9c0,1.4-0.2,2.7-0.7,4
	c1.7-3.4-22.8,66-26.7,76.8h38.1c6.6,0,11.9,5.4,12,12c0.1,6.4-5,11.8-11.4,11.9c-0.2,0-0.4,0-0.6,0h-46.6
	c-3.4,10.8-13.1,37-31.8,89.9c-23.3,66-30.7,92.1-30.7,108.6c0,15.4,6.8,23.9,18.2,23.9c40.9,0,68.3-47.1,95-105.8
	c2.3-4.1,6.6-6.7,11.3-6.8c1.8,0.1,3.5,0.5,5.1,1.1C547.3,338.8,550,342.9,550.2,347.5z"/>
<path id="XMLID_8_" class="st0" d="M668.5,347.5c-0.1,1.8-0.5,3.5-1.1,5.1c-33,71.1-64.8,119.5-117.1,119.5
	c-27.3,0-42.1-20.5-42.1-47.8c0-21,14.2-70.5,32.4-117.2l29-81.3h-35.8c-6.4,0.2-11.8-4.9-11.9-11.4c0-0.2,0-0.4,0-0.6
	c0-6.6,5.4-11.9,11.9-12h43.8c1.1-2.3,29-82.5,29.6-84.7c1.6-4.9,6.2-8.1,11.3-8c6.6,0,12,5.3,12,11.9c0,1.4-0.2,2.7-0.7,4
	c1.7-3.4-22.8,66-26.7,76.8h38.1c6.6,0,11.9,5.4,11.9,12c0.2,6.4-4.9,11.8-11.4,11.9c-0.2,0-0.4,0-0.6,0h-46.5
	c-3.4,10.8-13.1,37-31.9,89.9c-23.3,66-30.7,92.1-30.7,108.6c0,15.4,6.8,23.9,18.2,23.9c41,0,68.3-47.1,95-105.8
	c2.3-4.1,6.6-6.7,11.3-6.8c1.8,0.1,3.5,0.5,5.1,1.1C665.6,338.8,668.3,342.9,668.5,347.5z"/>
<path id="XMLID_7_" class="st0" d="M785.6,347.5c-0.1,1.8-0.5,3.5-1.1,5.1c-33,71.1-64.8,119.5-117.2,119.5
	c-27.3,0-42.1-20.5-42.1-47.8c0-16.5,5.7-37,19.9-81.9c15.4-44.9,32.4-92.7,49-139.9l29.6-86.4c2.4-6.1,9.1-9.3,15.4-7.4
	c6.3,2.2,9.6,9.1,7.4,15.4l-29.6,86.4c-15.9,45.5-32.4,91-48.9,139.3c-12.5,38.7-18.9,64.3-18.9,74.5c0,15.4,6.8,23.9,18.2,23.9
	c40.9,0,68.3-47.1,95-105.8c2.3-4.1,6.6-6.7,11.3-6.8c1.8,0.1,3.5,0.5,5.1,1.1C782.8,338.8,785.4,342.9,785.6,347.5z"/>
<path id="XMLID_4_" class="st0" d="M965.9,348.1c-0.1,1.6-0.5,3.1-1.1,4.5c-37,81.9-80.2,119.5-137.6,119.5
	c-47.1,0-75.6-31.3-74.5-77.9c3.4-72.8,62.6-191.1,129.7-191.1c28.4,0,48.4,14.8,48.4,42.1c0,60.3-84.8,96.7-147.9,112
	c-3.5,12.2-5.6,24.8-6.3,37.5c-1.1,32.4,17.1,52.3,51.2,53.5c46.6,1.1,82.9-31.8,114.9-105.2c3-5.8,9.8-8.5,15.9-6.3
	C962.9,338.9,965.7,343.3,965.9,348.1z M906.7,245.2c0-15.3-12-18.2-24.5-18.2c-39.2,0-72.2,59.2-90.5,103
	C839.1,315.1,906.7,287.2,906.7,245.2z"/>
<path id="XMLID_3_" d="M966.6,782.7h-5.1v-2.6h13.2v2.6h-5.1v13.5h-2.9L966.6,782.7z"/>
<path id="XMLID_2_" d="M977.6,780.1h3l4.9,7.7l4.9-7.7h3v16.2h-2.8v-11.6l-5.1,7.5h-0.1l-5.1-7.5v11.6h-2.8V780.1z"/>
</svg>
